<svg xmlns="http://www.w3.org/2000/svg" viewBox="0 0 215.12 198.97"><defs><style>.cls-1{fill:#d8e7f5;}.cls-2{fill:#b7cbdd;}.cls-3{fill:#010103;}.cls-4{fill:#fff;}.cls-5{fill:#ea5e5b;}.cls-6{fill:#ee8277;}.cls-7{fill:none;stroke:#231916;stroke-miterlimit:10;stroke-width:3px;}</style></defs><g id="Layer_2" data-name="Layer 2"><g id="레이어_1" data-name="레이어 1"><path class="cls-1" d="M210.09,167.7c1.4,4.72,4.58,9.9,3.18,14.89-1.87,6.72-9.66,8.91-15.84,8.61-6.33-.32-12.34-2.58-18.51-3.79-10.73-2.12-17.62.74-26.89,5.84-23.3,12.84-47.15-8.3-70.82-2.21-7.47,1.93-14.65,5.2-22.43,5.67-8.15.49-13.52-2.89-20.29-6.72-4.17-2.38-8.89-4.25-13.76-4.33-5.54-.09-12.19,3.66-17.45.37-4.63-2.89-5.7-10.81-5.78-15.83-.08-5.7,1.08-11.32,2-16.93,5.69-33.74,3.23-70.84,19.34-102C32.8,32,49.77,17,69.7,8.7a90.88,90.88,0,0,1,49.7-6,96.3,96.3,0,0,1,60.84,36.59c1.16,1.53,2.28,3.12,3.36,4.74a110.59,110.59,0,0,1,14.68,32.9q.85,3.3,1.56,6.61c4.76,22.25,3.61,45.12,6.55,67.6A104.87,104.87,0,0,0,210.09,167.7Zm-4.84,8.59c1.29-4.61-1.63-9.4-2.94-13.75a97.2,97.2,0,0,1-3.41-15.37c-2.72-20.76-1.64-41.9-6.06-62.47-.43-2-.92-4.08-1.45-6.11a101.81,101.81,0,0,0-13.56-30.4c-1-1.5-2-3-3.1-4.38a84.48,84.48,0,0,0-27-23.1,100.62,100.62,0,0,0-16.38-7.08c-4.86-1.6-9.74-3.34-14.85-3.92a1.5,1.5,0,0,0-1.5,2.15C119.12,20.43,125.45,28,130.44,36c2.27,3.69,4.45,7.43,6.51,11.21a13,13,0,0,0,9,17.77c1.59,3.47,3.11,7,4.57,10.5a95.05,95.05,0,0,1,4.74,14.36,66.05,66.05,0,0,1-4.37,43c-1.5,3.19-3,6.53-4.71,9.57-.32.55-6.17,7.68-6.75,6.29-1-2.34,1.67-5.95,2.46-8.1,1.55-4.17,3-8.89,1.76-13.32-.62-2.32-3.38,1-4.22,1.8-1.45,1.38-2.83,2.84-4.37,4.13-17.53,14.66-40.09,22.51-62.84,17.12a62.21,62.21,0,0,1-10-3.28q-1.69-.72-3.36-1.53a95.35,95.35,0,0,1-25.08-18.3c-4-4-8.38-7.79-11.58-12.42l0-.06a34.11,34.11,0,0,1-3.36-6.17,1.5,1.5,0,0,0-2.87.42c-1.38,13.51-2.26,27.12-4.47,40.17-.87,5.19-1.94,10.39-1.86,15.64.08,4.65,1.07,12,5.34,14.65,4.86,3,11-.44,16.14-.35,4.49.07,8.85,1.8,12.71,4,6.25,3.55,11.23,6.67,18.75,6.22,7.18-.44,13.83-3.46,20.72-5.23,21.88-5.64,43.92,13.9,65.46,2,8.56-4.72,14.92-7.36,24.85-5.41,5.7,1.13,11.26,3.21,17.11,3.51C196.32,184.53,203.53,182.5,205.25,176.29ZM130,98.5c4.07-5.65-2-11.75-7-14.67-.67-.39-1.32-.72-1.91-1a41.35,41.35,0,0,0-27.15-2.45,30.11,30.11,0,0,0-8,3.44c-3.72,2.36-6.59,5.78-6.31,10.44a5.08,5.08,0,0,0,5.93,5.25c6.07-.34,11.12-4.31,17.26-4.68a33.73,33.73,0,0,1,14.57,2.6c1.1.44,2.17.92,3.23,1.44C123.43,100.29,127.73,101.61,130,98.5ZM79.8,48.07a13,13,0,1,0-13,13A13,13,0,0,0,79.8,48.07ZM25,89.66c2.95-8.47-.89-14.08-4.51-10.38-1.08,4.5-1.93,9.06-2.64,13.66C19.69,94.61,22.79,96.05,25,89.66Z"/><path class="cls-2" d="M202.31,162.54c1.31,4.35,4.23,9.14,2.94,13.75-1.72,6.21-8.93,8.24-14.63,8-5.85-.3-11.41-2.38-17.11-3.51-9.93-2-16.29.69-24.85,5.41-21.54,11.86-43.58-7.68-65.46-2-6.89,1.77-13.54,4.79-20.72,5.23-7.52.45-12.5-2.67-18.75-6.22-3.86-2.19-8.22-3.92-12.71-4-5.13-.09-11.28,3.38-16.14.35-4.27-2.68-5.26-10-5.34-14.65-.08-5.25,1-10.45,1.86-15.64,2.21-13.05,3.09-26.66,4.47-40.17a1.5,1.5,0,0,1,2.87-.42,34.11,34.11,0,0,0,3.36,6.17l0,.06c3.2,4.63,7.62,8.46,11.58,12.42a95.35,95.35,0,0,0,25.08,18.3q1.66.81,3.36,1.53a62.21,62.21,0,0,0,10,3.28c22.75,5.39,45.31-2.46,62.84-17.12,1.54-1.29,2.92-2.75,4.37-4.13.84-.8,3.6-4.12,4.22-1.8,1.22,4.43-.21,9.15-1.76,13.32-.79,2.15-3.44,5.76-2.46,8.1.58,1.39,6.43-5.74,6.75-6.29,1.76-3,3.21-6.38,4.71-9.57a66.05,66.05,0,0,0,4.37-43,95.05,95.05,0,0,0-4.74-14.36c-1.46-3.54-3-7-4.57-10.5a13,13,0,1,0-9-17.77c-2.06-3.78-4.24-7.52-6.51-11.21-5-8.08-11.32-15.61-15.46-24.18a1.5,1.5,0,0,1,1.5-2.15c5.11.58,10,2.32,14.85,3.92a100.62,100.62,0,0,1,16.38,7.08,84.48,84.48,0,0,1,27,23.1c1.07,1.42,2.11,2.88,3.1,4.38a101.81,101.81,0,0,1,13.56,30.4c.53,2,1,4.07,1.45,6.11,4.42,20.57,3.34,41.71,6.06,62.47A97.2,97.2,0,0,0,202.31,162.54Z"/><path class="cls-3" d="M148.94,39.32a13,13,0,1,1-3,25.7q-4.15-9-9-17.77A13,13,0,0,1,148.94,39.32Zm.41,7.47a3.42,3.42,0,1,0-3.42,3.42A3.42,3.42,0,0,0,149.35,46.79Z"/><path class="cls-4" d="M145.93,43.36a3.43,3.43,0,1,1-3.42,3.43A3.42,3.42,0,0,1,145.93,43.36Z"/><path class="cls-3" d="M145.92,65a13,13,0,0,1-9-17.77Q141.78,56,145.92,65Z"/><path class="cls-5" d="M123,83.83c5,2.92,11.06,9,7,14.67-2.25,3.11-6.55,1.79-9.39.38-1.06-.52-2.13-1-3.23-1.44a33.73,33.73,0,0,0-14.57-2.6c-6.14.37-11.19,4.34-17.26,4.68a5.08,5.08,0,0,1-5.93-5.25c-.28-4.66,2.59-8.08,6.31-10.44C105,94,123,83.83,123,83.83Z"/><path class="cls-6" d="M121.08,82.84c.59.27,1.24.6,1.91,1,0,0-18,10.14-37.08,0a30.11,30.11,0,0,1,8-3.44A41.35,41.35,0,0,1,121.08,82.84Z"/><path class="cls-3" d="M66.77,35a13,13,0,1,1-13,13A13,13,0,0,1,66.77,35Zm2.12,6.51A3.42,3.42,0,1,0,65.47,45,3.43,3.43,0,0,0,68.89,41.55Z"/><circle class="cls-4" cx="65.47" cy="41.55" r="3.42"/><path class="cls-2" d="M20.5,79.28C24.12,75.58,28,81.19,25,89.66c-2.22,6.39-5.32,5-7.15,3.28C18.57,88.34,19.42,83.78,20.5,79.28Z"/><path class="cls-7" d="M69.7,8.7a90.88,90.88,0,0,1,49.7-6,96.3,96.3,0,0,1,60.84,36.59c1.16,1.53,2.28,3.12,3.36,4.74a110.59,110.59,0,0,1,14.68,32.9q.85,3.3,1.56,6.61c4.76,22.25,3.61,45.12,6.55,67.6a104.87,104.87,0,0,0,3.7,16.61c1.4,4.72,4.58,9.9,3.18,14.89-1.87,6.72-9.66,8.91-15.84,8.61-6.33-.32-12.34-2.58-18.51-3.79-10.73-2.12-17.62.74-26.89,5.84-23.3,12.84-47.15-8.3-70.82-2.21-7.47,1.93-14.65,5.2-22.43,5.67-8.15.49-13.52-2.89-20.29-6.72-4.17-2.38-8.89-4.25-13.76-4.33-5.54-.09-12.19,3.66-17.45.37-4.63-2.89-5.7-10.81-5.78-15.83-.08-5.7,1.08-11.32,2-16.93,5.69-33.74,3.23-70.84,19.34-102C32.8,32,49.77,17,69.7,8.7Z"/></g></g></svg>