<svg xmlns="http://www.w3.org/2000/svg" viewBox="0 0 179.72 53.07"><defs><style>.cls-1{font-size:41.76px;fill:#090a0a;font-family:MaplestoryLight, Maplestory;}.cls-2{fill:#41bfeb;}.cls-3{fill:#f2f2f2;}.cls-4{fill:#e2e2e1;}.cls-5,.cls-6{fill:#fff;}.cls-6{font-size:8.69px;font-family:MaplestoryBold, Maplestory;}.cls-7{letter-spacing:-0.03em;}</style></defs><g id="Layer_2" data-name="Layer 2"><g id="Layer_1-2" data-name="Layer 1"><text class="cls-1" transform="translate(60.52 40.49) scale(0.83 1)">우리의집</text><rect class="cls-2" width="53.07" height="53.07" rx="4.07"/><rect class="cls-3" x="25.08" y="18.64" width="1.04" height="0.43"/><path class="cls-4" d="M12.72,45.43a2,2,0,0,0,2,2H37.22a2,2,0,0,0,2-2V33.53H12.72Z"/><path class="cls-4" d="M10.93,32.42a.65.65,0,0,0,.46,1.11h1.33V30.64Z"/><path class="cls-4" d="M28.16,19.55a3.06,3.06,0,0,0-4.35,0l-1.38,1.38h7.11Z"/><path class="cls-4" d="M41,32.42l-1.79-1.78v2.89h1.33A.65.65,0,0,0,41,32.42Z"/><polygon class="cls-4" points="29.54 20.93 22.43 20.93 12.72 30.64 12.72 33.53 39.25 33.53 39.25 30.64 29.54 20.93"/><path class="cls-5" d="M12,45.43a2,2,0,0,0,2,2H36.5a2,2,0,0,0,2-2V33.53H12Z"/><path class="cls-5" d="M10.22,32.42a.65.65,0,0,0,.46,1.11H12V30.64Z"/><path class="cls-5" d="M27.45,19.55a3.06,3.06,0,0,0-4.35,0l-1.39,1.38h7.12Z"/><path class="cls-5" d="M40.32,32.42l-1.78-1.78v2.89h1.33A.65.65,0,0,0,40.32,32.42Z"/><polygon class="cls-5" points="28.83 20.93 21.71 20.93 12 30.64 12 33.53 38.54 33.53 38.54 30.64 28.83 20.93"/><path class="cls-5" d="M17.28,20.62a.63.63,0,0,1-.6,1c-.64,0-2.3-1.3-2.3-1.94s1.84-1.4,2.28-.94S16.92,20,17.28,20.62Z"/><path class="cls-5" d="M16.13,17.46a.84.84,0,0,1-1.57,0c-.43-.73-.06-3.5.67-3.93s2.84,1.15,2.6,2C17.65,16.16,16.61,16.63,16.13,17.46Z"/><path class="cls-5" d="M19.19,14.12c-1,.4-1.68-.15-1.54-1.2s2.6-3.51,3.64-3.37,1.88,3.31,1,3.94C21.64,14,20.27,13.66,19.19,14.12Z"/><path class="cls-5" d="M25.2,12.38c-1.22.11-1.81-.75-1.28-1.87s4.12-3,5.23-2.46.92,4.35-.24,4.75C28,13.12,26.57,12.27,25.2,12.38Z"/><text class="cls-6" transform="translate(30.5 12.85) rotate(26.33)"><tspan class="cls-7">W</tspan><tspan x="7.52" y="0">e</tspan></text></g></g></svg>